<region>
sample=$SAMPLE_DIR/black_cortex_floor_tom_18_edge_a_01.wav
pan=$TOM_4_PAN
hivel=18
seq_length=2

<region>
sample=$SAMPLE_DIR/black_cortex_floor_tom_18_edge_b_01.wav
pan=$TOM_4_PAN
hivel=18
seq_length=2
seq_position=2

<region>
sample=$SAMPLE_DIR/black_cortex_floor_tom_18_edge_a_02.wav
pan=$TOM_4_PAN
lovel=19
hivel=36
seq_length=2

<region>
sample=$SAMPLE_DIR/black_cortex_floor_tom_18_edge_b_02.wav
pan=$TOM_4_PAN
lovel=19
hivel=36
seq_length=2
seq_position=2

<region>
sample=$SAMPLE_DIR/black_cortex_floor_tom_18_edge_a_03.wav
pan=$TOM_4_PAN
lovel=37
hivel=54
seq_length=2

<region>
sample=$SAMPLE_DIR/black_cortex_floor_tom_18_edge_b_03.wav
pan=$TOM_4_PAN
lovel=37
hivel=54
seq_length=2
seq_position=2

<region>
sample=$SAMPLE_DIR/black_cortex_floor_tom_18_edge_a_04.wav
pan=$TOM_4_PAN
lovel=55
hivel=72
seq_length=2

<region>
sample=$SAMPLE_DIR/black_cortex_floor_tom_18_edge_b_04.wav
pan=$TOM_4_PAN
lovel=55
hivel=72
seq_length=2
seq_position=2

<region>
sample=$SAMPLE_DIR/black_cortex_floor_tom_18_edge_a_05.wav
pan=$TOM_4_PAN
lovel=73
hivel=90
seq_length=2

<region>
sample=$SAMPLE_DIR/black_cortex_floor_tom_18_edge_b_05.wav
pan=$TOM_4_PAN
lovel=73
hivel=90
seq_length=2
seq_position=2

<region>
sample=$SAMPLE_DIR/black_cortex_floor_tom_18_edge_a_06.wav
pan=$TOM_4_PAN
lovel=91
hivel=108
seq_length=2

<region>
sample=$SAMPLE_DIR/black_cortex_floor_tom_18_edge_b_06.wav
pan=$TOM_4_PAN
lovel=91
hivel=108
seq_length=2
seq_position=2

<region>
sample=$SAMPLE_DIR/black_cortex_floor_tom_18_edge_a_07.wav
pan=$TOM_4_PAN
lovel=109
seq_length=2

<region>
sample=$SAMPLE_DIR/black_cortex_floor_tom_18_edge_b_07.wav
pan=$TOM_4_PAN
lovel=109
seq_length=2
seq_position=2
